<svg width="420" height="51" viewBox="0 0 420 51" fill="none" xmlns="http://www.w3.org/2000/svg">
<rect x="0.5" width="419" height="51" rx="25.5" fill="url(#paint0_linear_98_2205)"/>
<path d="M168.227 31H163.5V19.7266H168.18C169.206 19.7266 170.023 19.9818 170.633 20.4922C171.242 21.0026 171.547 21.6849 171.547 22.5391C171.547 23.1432 171.349 23.6797 170.953 24.1484C170.557 24.6172 170.07 24.8984 169.492 24.9922V25.0547C170.263 25.1276 170.888 25.4167 171.367 25.9219C171.852 26.4271 172.094 27.0521 172.094 27.7969C172.094 28.7917 171.75 29.5755 171.062 30.1484C170.375 30.7161 169.43 31 168.227 31ZM165.516 21.2969V24.4766H167.359C168.062 24.4766 168.604 24.3359 168.984 24.0547C169.365 23.7682 169.555 23.362 169.555 22.8359C169.555 22.3464 169.391 21.9688 169.062 21.7031C168.74 21.4323 168.276 21.2969 167.672 21.2969H165.516ZM165.516 29.4297H167.766C168.505 29.4297 169.068 29.2786 169.453 28.9766C169.844 28.6745 170.039 28.2344 170.039 27.6562C170.039 27.0833 169.839 26.6484 169.438 26.3516C169.042 26.0547 168.456 25.9062 167.68 25.9062H165.516V29.4297ZM176.359 29.6641C176.917 29.6641 177.385 29.5 177.766 29.1719C178.151 28.8385 178.344 28.4245 178.344 27.9297V27.2969L176.43 27.4141C175.961 27.4453 175.596 27.5625 175.336 27.7656C175.081 27.9635 174.953 28.2266 174.953 28.5547C174.953 28.8932 175.081 29.1641 175.336 29.3672C175.596 29.5651 175.938 29.6641 176.359 29.6641ZM175.773 31.1328C174.966 31.1328 174.302 30.901 173.781 30.4375C173.266 29.974 173.008 29.3724 173.008 28.6328C173.008 27.8984 173.279 27.3177 173.82 26.8906C174.367 26.4635 175.146 26.2188 176.156 26.1562L178.344 26.0312V25.4375C178.344 25.0052 178.206 24.6693 177.93 24.4297C177.659 24.1901 177.281 24.0703 176.797 24.0703C176.344 24.0703 175.974 24.1719 175.688 24.375C175.401 24.5781 175.227 24.8542 175.164 25.2031H173.359C173.401 24.4167 173.737 23.7786 174.367 23.2891C175.003 22.7943 175.839 22.5469 176.875 22.5469C177.901 22.5469 178.721 22.7969 179.336 23.2969C179.956 23.7969 180.266 24.4635 180.266 25.2969V31H178.391V29.6797H178.352C178.117 30.1224 177.763 30.4766 177.289 30.7422C176.815 31.0026 176.31 31.1328 175.773 31.1328ZM189.133 25.6719H187.297C187.214 25.2083 187.016 24.8359 186.703 24.5547C186.391 24.2682 185.984 24.125 185.484 24.125C184.87 24.125 184.38 24.3698 184.016 24.8594C183.651 25.3438 183.469 26.0104 183.469 26.8594C183.469 27.7188 183.651 28.3906 184.016 28.875C184.38 29.3542 184.875 29.5938 185.5 29.5938C185.99 29.5938 186.391 29.4635 186.703 29.2031C187.016 28.9375 187.216 28.5677 187.305 28.0938H189.141C189.062 29.0208 188.69 29.7656 188.023 30.3281C187.362 30.8854 186.513 31.1641 185.477 31.1641C184.258 31.1641 183.289 30.7812 182.57 30.0156C181.852 29.2448 181.492 28.1927 181.492 26.8594C181.492 25.5417 181.852 24.4948 182.57 23.7188C183.289 22.9375 184.253 22.5469 185.461 22.5469C186.523 22.5469 187.383 22.8438 188.039 23.4375C188.701 24.026 189.065 24.7708 189.133 25.6719ZM192.328 26.1719L195.445 22.7188H197.688L194.375 26.2812L197.828 31H195.578L192.961 27.4609L192.305 28.125V31H190.359V19.7266H192.305V26.1719H192.328ZM202.344 20.7812H204.289V22.7188H205.852V24.2188H204.289V28.5234C204.289 28.862 204.37 29.112 204.531 29.2734C204.693 29.4349 204.945 29.5156 205.289 29.5156C205.518 29.5156 205.703 29.5026 205.844 29.4766V30.9609C205.609 31.013 205.273 31.0391 204.836 31.0391C203.94 31.0391 203.299 30.8672 202.914 30.5234C202.534 30.1797 202.344 29.6042 202.344 28.7969V24.2188H201.156V22.7188H202.344V20.7812ZM213.609 30.0156C212.885 30.7812 211.911 31.1641 210.688 31.1641C209.464 31.1641 208.49 30.7812 207.766 30.0156C207.042 29.2448 206.68 28.1927 206.68 26.8594C206.68 25.5312 207.044 24.4818 207.773 23.7109C208.503 22.9349 209.474 22.5469 210.688 22.5469C211.906 22.5469 212.878 22.9349 213.602 23.7109C214.331 24.4818 214.695 25.5312 214.695 26.8594C214.695 28.1927 214.333 29.2448 213.609 30.0156ZM209.203 28.8984C209.568 29.3828 210.062 29.625 210.688 29.625C211.312 29.625 211.807 29.3828 212.172 28.8984C212.536 28.4141 212.719 27.7344 212.719 26.8594C212.719 25.9896 212.536 25.3125 212.172 24.8281C211.807 24.3385 211.312 24.0938 210.688 24.0938C210.068 24.0938 209.573 24.3385 209.203 24.8281C208.839 25.3125 208.656 25.9896 208.656 26.8594C208.656 27.7344 208.839 28.4141 209.203 28.8984ZM226.477 29.2969V31H219.344V19.7266H221.359V29.2969H226.477ZM234.156 30.0156C233.432 30.7812 232.458 31.1641 231.234 31.1641C230.01 31.1641 229.036 30.7812 228.312 30.0156C227.589 29.2448 227.227 28.1927 227.227 26.8594C227.227 25.5312 227.591 24.4818 228.32 23.7109C229.049 22.9349 230.021 22.5469 231.234 22.5469C232.453 22.5469 233.424 22.9349 234.148 23.7109C234.878 24.4818 235.242 25.5312 235.242 26.8594C235.242 28.1927 234.88 29.2448 234.156 30.0156ZM229.75 28.8984C230.115 29.3828 230.609 29.625 231.234 29.625C231.859 29.625 232.354 29.3828 232.719 28.8984C233.083 28.4141 233.266 27.7344 233.266 26.8594C233.266 25.9896 233.083 25.3125 232.719 24.8281C232.354 24.3385 231.859 24.0938 231.234 24.0938C230.615 24.0938 230.12 24.3385 229.75 24.8281C229.385 25.3125 229.203 25.9896 229.203 26.8594C229.203 27.7344 229.385 28.4141 229.75 28.8984ZM240.148 29.4609C240.773 29.4609 241.271 29.2266 241.641 28.7578C242.01 28.2839 242.195 27.6432 242.195 26.8359C242.195 26.0286 242.008 25.3854 241.633 24.9062C241.263 24.4219 240.768 24.1797 240.148 24.1797C239.534 24.1797 239.044 24.4193 238.68 24.8984C238.32 25.3776 238.141 26.0234 238.141 26.8359C238.141 27.6536 238.32 28.2969 238.68 28.7656C239.044 29.2292 239.534 29.4609 240.148 29.4609ZM240.141 34.125C239.125 34.125 238.276 33.8906 237.594 33.4219C236.917 32.9583 236.529 32.3594 236.43 31.625H238.359C238.464 31.9427 238.682 32.1979 239.016 32.3906C239.349 32.5885 239.745 32.6875 240.203 32.6875C240.828 32.6875 241.315 32.526 241.664 32.2031C242.018 31.8854 242.195 31.4583 242.195 30.9219V29.5234H242.148C241.93 29.9766 241.589 30.3385 241.125 30.6094C240.667 30.875 240.143 31.0078 239.555 31.0078C238.523 31.0078 237.698 30.6328 237.078 29.8828C236.458 29.1276 236.148 28.1094 236.148 26.8281C236.148 25.5208 236.458 24.487 237.078 23.7266C237.698 22.9609 238.536 22.5781 239.594 22.5781C240.177 22.5781 240.698 22.7188 241.156 23C241.615 23.276 241.964 23.6562 242.203 24.1406H242.234V22.7188H244.141V30.8672C244.141 31.8568 243.776 32.6458 243.047 33.2344C242.318 33.8281 241.349 34.125 240.141 34.125ZM245.773 31V22.7188H247.719V31H245.773ZM247.508 21.3281C247.299 21.5312 247.044 21.6328 246.742 21.6328C246.44 21.6328 246.185 21.5312 245.977 21.3281C245.768 21.1198 245.664 20.8698 245.664 20.5781C245.664 20.2812 245.768 20.0312 245.977 19.8281C246.185 19.6198 246.44 19.5156 246.742 19.5156C247.044 19.5156 247.299 19.6198 247.508 19.8281C247.721 20.0312 247.828 20.2812 247.828 20.5781C247.828 20.8698 247.721 21.1198 247.508 21.3281ZM249.352 31V22.7188H251.219V24.1406H251.258C251.487 23.6406 251.82 23.2526 252.258 22.9766C252.701 22.7005 253.234 22.5625 253.859 22.5625C254.766 22.5625 255.469 22.8359 255.969 23.3828C256.474 23.9297 256.727 24.6849 256.727 25.6484V31H254.781V26.0391C254.781 25.4453 254.641 24.9922 254.359 24.6797C254.083 24.3672 253.672 24.2109 253.125 24.2109C252.568 24.2109 252.122 24.3932 251.789 24.7578C251.461 25.1224 251.297 25.6042 251.297 26.2031V31H249.352Z" fill="white"/>
<defs>
<linearGradient id="paint0_linear_98_2205" x1="243.145" y1="51" x2="283.79" y2="-66.6225" gradientUnits="userSpaceOnUse">
<stop offset="0.215" stop-color="#FF5E54"/>
<stop offset="1" stop-color="#FCDD60"/>
</linearGradient>
</defs>
</svg>
