<svg width="62" height="61" viewBox="0 0 62 61" fill="none" xmlns="http://www.w3.org/2000/svg">
<rect width="62" height="61" fill="#777777"/>
<g id="Password Changed!" clip-path="url(#clip0_98_1950)">
<rect width="1440" height="1413" transform="translate(-689 -407)" fill="white"/>
<g id="Frame 2147223509">
<g id="Desktop - 1">
<rect width="1440" height="1024" transform="translate(-689 -407)" fill="white"/>
<rect width="1440" height="1024" transform="translate(-689 -407)" fill="url(#paint0_linear_98_1950)" fill-opacity="0.2"/>
<g id="Frame 2147223497">
<rect x="-210.5" y="-32" width="483" height="274" rx="20" fill="white"/>
<g id="fi_4436481" clip-path="url(#clip1_98_1950)">
<g id="Group">
<path id="Vector" fill-rule="evenodd" clip-rule="evenodd" d="M31 0C14.1773 0 0.5 13.6773 0.5 30.5C0.5 47.3227 14.1773 61 31 61C47.8227 61 61.5 47.3227 61.5 30.5C61.5 13.6773 47.8227 0 31 0Z" fill="url(#paint1_linear_98_1950)"/>
<path id="Vector_2" fill-rule="evenodd" clip-rule="evenodd" d="M45.7496 20.2182C46.4883 20.9568 46.4883 22.1721 45.7496 22.9107L27.8785 40.7818C27.5092 41.1512 27.0207 41.3418 26.5323 41.3418C26.0438 41.3418 25.5553 41.1512 25.186 40.7818L16.2504 31.8463C15.5117 31.1076 15.5117 29.8924 16.2504 29.1537C16.9891 28.415 18.2043 28.415 18.943 29.1537L26.5323 36.743L43.0571 20.2182C43.7957 19.4676 45.011 19.4676 45.7496 20.2182Z" fill="white"/>
</g>
</g>
</g>
</g>
</g>
</g>
<defs>
<linearGradient id="paint0_linear_98_1950" x1="833.91" y1="1024" x2="1885.42" y2="503.148" gradientUnits="userSpaceOnUse">
<stop offset="0.215" stop-color="#FF5E54"/>
<stop offset="1" stop-color="#FCDD60"/>
</linearGradient>
<linearGradient id="paint1_linear_98_1950" x1="35.8254" y1="61" x2="85.1748" y2="43.6172" gradientUnits="userSpaceOnUse">
<stop offset="0.215" stop-color="#FF5E54"/>
<stop offset="1" stop-color="#FCDD60"/>
</linearGradient>
<clipPath id="clip0_98_1950">
<rect width="1440" height="1413" fill="white" transform="translate(-689 -407)"/>
</clipPath>
<clipPath id="clip1_98_1950">
<rect width="61" height="61" fill="white" transform="translate(0.5)"/>
</clipPath>
</defs>
</svg>
