<svg width="16" height="17" viewBox="0 0 16 17" fill="none" xmlns="http://www.w3.org/2000/svg">
<g id="fi_3128208">
<g id="_x30_1._Facebook">
<path id="Icon_11_" d="M6.46395 8.86322C6.41595 8.86322 5.35995 8.86322 4.87995 8.86322C4.62395 8.86322 4.54395 8.76722 4.54395 8.52722C4.54395 7.88722 4.54395 7.23122 4.54395 6.59122C4.54395 6.33522 4.63995 6.25522 4.87995 6.25522H6.46395C6.46395 6.20722 6.46395 5.27922 6.46395 4.84722C6.46395 4.20722 6.57595 3.59922 6.89595 3.03922C7.23195 2.46322 7.71195 2.07922 8.31995 1.85522C8.71995 1.71122 9.11995 1.64722 9.55195 1.64722H11.1199C11.3439 1.64722 11.4399 1.74322 11.4399 1.96722V3.79122C11.4399 4.01522 11.3439 4.11122 11.1199 4.11122C10.6879 4.11122 10.2559 4.11122 9.82395 4.12722C9.39195 4.12722 9.16795 4.33522 9.16795 4.78322C9.15195 5.26322 9.16795 5.72722 9.16795 6.22322H11.0239C11.2799 6.22322 11.3759 6.31922 11.3759 6.57522V8.51122C11.3759 8.76722 11.2959 8.84722 11.0239 8.84722C10.4479 8.84722 9.21595 8.84722 9.16795 8.84722V14.0632C9.16795 14.3352 9.08795 14.4312 8.79995 14.4312C8.12795 14.4312 7.47195 14.4312 6.79995 14.4312C6.55995 14.4312 6.46395 14.3352 6.46395 14.0952C6.46395 12.4152 6.46395 8.91122 6.46395 8.86322Z" fill="#3F3F46"/>
</g>
</g>
</svg>
