<svg width="16" height="17" viewBox="0 0 16 17" fill="none" xmlns="http://www.w3.org/2000/svg">
<g id="fi_2111532" clip-path="url(#clip0_1162_5252)">
<path id="Vector" d="M15.9958 16.0312L15.9998 16.0306V10.1626C15.9998 7.2919 15.3818 5.08057 12.0258 5.08057C10.4125 5.08057 9.32985 5.9659 8.88785 6.80523H8.84118V5.34857H5.65918V16.0306H8.97251V10.7412C8.97251 9.34857 9.23651 8.0019 10.9612 8.0019C12.6605 8.0019 12.6858 9.59123 12.6858 10.8306V16.0312H15.9958Z" fill="#3F3F46"/>
<path id="Vector_2" d="M0.263672 5.34937H3.58101V16.0314H0.263672V5.34937Z" fill="#3F3F46"/>
<path id="Vector_3" d="M1.92133 0.03125C0.860667 0.03125 0 0.891917 0 1.95258C0 3.01325 0.860667 3.89192 1.92133 3.89192C2.982 3.89192 3.84267 3.01325 3.84267 1.95258C3.842 0.891917 2.98133 0.03125 1.92133 0.03125Z" fill="#3F3F46"/>
</g>
<defs>
<clipPath id="clip0_1162_5252">
<rect width="16" height="16" fill="white" transform="translate(0 0.03125)"/>
</clipPath>
</defs>
</svg>
