<svg width="16" height="17" viewBox="0 0 16 17" fill="none" xmlns="http://www.w3.org/2000/svg">
<g id="fi_6433684">
<g id="Group">
<path id="Vector" d="M8.00002 5.58594C6.65069 5.58594 5.55469 6.68194 5.55469 8.03127C5.55469 9.3806 6.65069 10.4793 8.00002 10.4793C9.34935 10.4793 10.448 9.3806 10.448 8.03127C10.448 6.68194 9.34935 5.58594 8.00002 5.58594Z" fill="#3F3F46"/>
<path id="Vector_2" d="M11.6903 1.3645H4.30901C2.66901 1.3645 1.33301 2.7005 1.33301 4.3405V11.7218C1.33301 13.3645 2.66901 14.6978 4.30901 14.6978H11.6903C13.333 14.6978 14.6663 13.3645 14.6663 11.7218V4.3405C14.6663 2.7005 13.333 1.3645 11.6903 1.3645ZM7.99967 12.3512C5.61834 12.3512 3.67967 10.4125 3.67967 8.03117C3.67967 5.64984 5.61834 3.71384 7.99967 3.71384C10.381 3.71384 12.3197 5.64984 12.3197 8.03117C12.3197 10.4125 10.381 12.3512 7.99967 12.3512ZM12.4103 4.49784C11.9063 4.49784 11.4957 4.08984 11.4957 3.58584C11.4957 3.08184 11.9063 2.67117 12.4103 2.67117C12.9143 2.67117 13.325 3.08184 13.325 3.58584C13.325 4.08984 12.9143 4.49784 12.4103 4.49784Z" fill="#3F3F46"/>
</g>
</g>
</svg>
