<svg width="14" height="18" viewBox="0 0 14 18" fill="none" xmlns="http://www.w3.org/2000/svg">
<path id="Vector" d="M7.3528 0.809624C8.23238 0.795898 9.10525 0.802761 9.97811 0.795898C10.0318 1.84589 10.4011 2.91646 11.1531 3.65763C11.9051 4.41938 12.966 4.76938 14 4.88604V7.65169C13.0331 7.61738 12.0596 7.4115 11.18 6.98602C10.7973 6.80759 10.4414 6.58112 10.0923 6.34779C10.0855 8.35169 10.099 10.3556 10.0788 12.3526C10.0251 13.3134 9.71625 14.2673 9.17239 15.0565C8.29281 16.3741 6.76866 17.232 5.20422 17.2594C4.24407 17.3143 3.28392 17.0467 2.46477 16.5526C1.10847 15.7359 0.155035 14.2398 0.0140341 12.634C0.000605427 12.2909 -0.0061089 11.9477 0.00731977 11.6114C0.128178 10.3075 0.759326 9.05854 1.73962 8.20757C2.8542 7.21935 4.41192 6.74582 5.86894 7.02719C5.88236 8.04287 5.84208 9.05854 5.84208 10.0742C5.17736 9.85461 4.3985 9.91637 3.81435 10.3281C3.39135 10.6095 3.06906 11.0418 2.9012 11.5291C2.7602 11.8791 2.80048 12.2634 2.8072 12.634C2.96834 13.7595 4.02921 14.7065 5.15722 14.6036C5.90922 14.5967 6.62766 14.1506 7.01709 13.4987C7.14466 13.2722 7.28566 13.0389 7.29238 12.7712C7.35952 11.5428 7.33266 10.3213 7.33938 9.09285C7.34609 6.3272 7.33266 3.56841 7.3528 0.809624Z" fill="#3F3F46"/>
</svg>
